<svg xmlns="http://www.w3.org/2000/svg" viewBox="0 0 1600 900" fill="none">
  <defs>
    <linearGradient id="bg" x1="0" y1="0" x2="1600" y2="900">
      <stop stop-color="#09111d"/>
      <stop offset="0.48" stop-color="#1e293b"/>
      <stop offset="1" stop-color="#334155"/>
    </linearGradient>
  </defs>
  <rect width="1600" height="900" fill="url(#bg)"/>
  <circle cx="320" cy="200" r="170" fill="#ffffff" fill-opacity=".07"/>
  <circle cx="1230" cy="190" r="220" fill="#0ea5e9" fill-opacity=".12"/>
  <circle cx="1260" cy="720" r="240" fill="#22c55e" fill-opacity=".10"/>
  <path d="M0 690C180 640 370 600 560 620C760 640 940 780 1160 770C1360 760 1475 680 1600 630V900H0V690Z" fill="#020617" fill-opacity=".28"/>
  <rect x="140" y="145" width="520" height="220" rx="34" fill="#FFFFFF" fill-opacity=".10" stroke="#FFFFFF" stroke-opacity=".14"/>
  <rect x="170" y="410" width="420" height="132" rx="28" fill="#FFFFFF" fill-opacity=".08" stroke="#FFFFFF" stroke-opacity=".12"/>
  <rect x="1040" y="135" width="400" height="540" rx="42" fill="#FFFFFF" fill-opacity=".09" stroke="#FFFFFF" stroke-opacity=".14"/>
  <path d="M1120 280H1360" stroke="#FFFFFF" stroke-opacity=".18" stroke-width="18" stroke-linecap="round"/>
  <path d="M1120 350H1285" stroke="#FFFFFF" stroke-opacity=".16" stroke-width="14" stroke-linecap="round"/>
  <path d="M1120 420H1345" stroke="#FFFFFF" stroke-opacity=".16" stroke-width="14" stroke-linecap="round"/>
</svg>